Coordinates
version=1
nRows=10
nColumns=46
inDegrees=yes

Units are S.I. units (second, meters, Newtons, ...)
Angles are in degrees.

endheader
time	pelvis_tilt	pelvis_list	pelvis_rotation	pelvis_tx	pelvis_ty	pelvis_tz	bb_angle	bb_tx	bb_ty	bb_tz	hip_flexion_r	hip_adduction_r	hip_rotation_r	knee_angle_r	knee_angle_r_beta	ankle_angle_r	subtalar_angle_r	mtp_angle_r	crank_angle_r	hip_flexion_l	hip_adduction_l	hip_rotation_l	knee_angle_l	knee_angle_l_beta	ankle_angle_l	subtalar_angle_l	mtp_angle_l	crank_angle_l	lumbar_extension	lumbar_bending	lumbar_rotation	arm_flex_r	arm_add_r	arm_rot_r	elbow_flex_r	pro_sup_r	wrist_flex_r	wrist_dev_r	arm_flex_l	arm_add_l	arm_rot_l	elbow_flex_l	pro_sup_l	wrist_flex_l	wrist_dev_l
      5.00000000	    -15.51441373	     -5.32726482	     -0.40498732	      0.16189950	      1.15454818	     -0.26677332	      0.00000000	      0.50000000	      0.00000000	      0.25000000	     92.18599061	     -4.44521937	     -3.37201955	    112.02751886	      1.95524906	    -10.19403886	    -12.68535109	      0.00000000	      0.00000000	     36.70040077	     -9.08897018	     -4.12075579	     34.12889077	      0.59566151	      6.34214416	     -1.74260295	      0.00000000	      0.00000000	    -64.91773664	      7.33953552	     10.63410823	     89.76343491	    -12.52431330	     27.64171835	     60.99281576	     27.94047369	      0.00000000	      0.00000000	     89.37212274	    -14.03782205	     31.04988568	     53.85350955	     30.50092936	      0.00000000	      0.00000000
      5.00500000	    -15.87679455	     -5.29849585	     -0.85227717	      0.16166590	      1.15549203	     -0.26679924	      0.00000000	      0.50000000	      0.00000000	      0.25000000	     92.96512428	     -4.00408749	     -3.33160246	    111.24946138	      1.94166939	     -9.77076499	    -12.35173744	      0.00000000	      0.00000000	     36.84078513	     -9.49192545	     -4.83288380	     35.03567761	      0.61148793	      6.46212512	     -1.32616958	      0.00000000	      0.00000000	    -64.81021721	      7.26888426	     10.82375949	     89.77007010	    -12.32140472	     27.65775655	     61.30691834	     27.94977045	      0.00000000	      0.00000000	     89.37288648	    -14.35916668	     31.04142387	     53.83221258	     30.52361545	      0.00000000	      0.00000000
      5.01000000	    -16.22191870	     -5.24979371	     -1.22654663	      0.16131392	      1.15653855	     -0.26692399	      0.00000000	      0.50000000	      0.00000000	      0.25000000	     93.59219194	     -3.61103130	     -3.26436239	    110.34431941	      1.92587168	     -9.33192273	    -12.07072146	      0.00000000	      0.00000000	     37.09465350	     -9.81395503	     -5.37427008	     36.14015974	      0.63076478	      6.53228997	     -1.17408765	      0.00000000	      0.00000000	    -64.73196569	      7.21793886	     10.91845293	     89.77879364	    -12.13374332	     27.64578392	     61.59878776	     27.96110449	      0.00000000	      0.00000000	     89.38777213	    -14.67668079	     31.01722048	     53.86973863	     30.54867744	      0.00000000	      0.00000000
      5.01500000	    -16.68604659	     -5.33825068	     -1.61359183	      0.16086741	      1.15737480	     -0.26690216	      0.00000000	      0.50000000	      0.00000000	      0.25000000	     94.16673910	     -3.26826411	     -3.42273913	    109.27775060	      1.90725655	     -8.75570557	    -11.58378199	      0.00000000	      0.00000000	     37.64977231	    -10.30627862	     -5.77309081	     37.51699614	      0.65479511	      6.71876524	     -0.85883383	      0.00000000	      0.00000000	    -64.60346535	      7.24502334	     11.14658202	     89.78667385	    -11.83868617	     27.61888540	     61.97916019	     27.96780640	      0.00000000	      0.00000000	     89.38851966	    -15.16867463	     30.98330063	     54.05722482	     30.60739105	      0.00000000	      0.00000000
      5.02000000	    -17.06873271	     -5.24610615	     -1.96641174	      0.16023810	      1.15840316	     -0.26693143	      0.00000000	      0.50000000	      0.00000000	      0.25000000	     94.54050515	     -2.85378610	     -3.34551043	    108.09643945	      1.88663878	     -8.13075712	    -11.31844387	      0.00000000	      0.00000000	     38.20010105	    -10.57007116	     -6.08183101	     39.01302981	      0.68090582	      6.73602869	     -0.88812566	      0.00000000	      0.00000000	    -64.56190052	      7.15660117	     11.10656275	     89.79627435	    -11.59823181	     27.55604856	     62.31997512	     27.98086627	      0.00000000	      0.00000000	     89.41295305	    -15.59829018	     30.93264294	     54.22345791	     30.65246451	      0.00000000	      0.00000000
      5.02500000	    -17.71089909	     -5.35467684	     -2.35567303	      0.15950965	      1.15883788	     -0.26675042	      0.00000000	      0.50000000	      0.00000000	      0.25000000	     94.97614719	     -2.36819990	     -3.45856797	    106.73081348	      1.86280411	     -7.19985747	    -10.61544090	      0.00000000	      0.00000000	     39.24362581	    -11.10966885	     -6.23142168	     40.85061919	      0.71297781	      7.10289450	     -0.36673260	      0.00000000	      0.00000000	    -64.38246268	      7.25949405	     11.00450562	     89.80343973	    -10.61414436	     27.14638409	     62.82405523	     27.56099620	      0.00000000	      0.00000000	     89.36600594	    -17.49645803	     31.73921037	     55.77788390	     31.19352688	      0.00000000	      0.00000000
      5.03000000	    -18.23719511	     -5.23382107	     -2.76950119	      0.15873441	      1.15961244	     -0.26656797	      0.00000000	      0.50000000	      0.00000000	      0.25000000	     95.17145913	     -1.86883708	     -3.38880666	    105.25472791	      1.83704156	     -6.31561874	    -10.35598593	      0.00000000	      0.00000000	     40.19515388	    -11.38598205	     -6.37012345	     42.72460805	      0.74568508	      6.96206310	     -0.80902305	      0.00000000	      0.00000000	    -64.19825352	      7.06779134	     11.01461757	     89.81151441	    -10.35112444	     27.08649522	     63.16061429	     27.53870042	      0.00000000	      0.00000000	     89.38476813	    -17.91899535	     31.56622875	     55.92687024	     31.23635755	      0.00000000	      0.00000000
      5.03500000	    -18.83833150	     -5.21762909	     -3.07752607	      0.15796347	      1.16006480	     -0.26628264	      0.00000000	      0.50000000	      0.00000000	      0.25000000	     95.28548036	     -1.41275697	     -3.37333486	    103.65072868	      1.80904649	     -5.32163145	     -9.87135004	      0.00000000	      0.00000000	     41.43263705	    -11.73401164	     -6.26452933	     44.85889968	      0.78293550	      6.93791355	     -0.87024844	      0.00000000	      0.00000000	    -63.96409921	      7.02380412	     10.97802219	     89.81546991	     -9.97770674	     26.97372936	     63.60581056	     27.47044364	      0.00000000	      0.00000000	     89.38347594	    -18.67286978	     31.52050373	     56.55651393	     31.39570475	      0.00000000	      0.00000000
      5.04000000	    -19.31935887	     -5.06939793	     -3.34933129	      0.15724755	      1.16057495	     -0.26591761	      0.00000000	      0.50000000	      0.00000000	      0.25000000	     95.16916669	     -0.99331260	     -3.22434727	    102.00538471	      1.78032982	     -4.17409803	     -9.38538413	      0.00000000	      0.00000000	     42.62133652	    -11.96172735	     -6.22519243	     47.10124304	      0.82207177	      6.83990367	     -1.06539864	      0.00000000	      0.00000000	    -63.91174961	      6.93210242	     10.37811219	     89.82286097	     -8.87076434	     26.67038370	     63.90454351	     26.64794666	      0.00000000	      0.00000000	     89.37259720	    -20.75640172	     32.26530624	     58.20699684	     32.03295136	      0.00000000	      0.00000000
      5.04500000	    -19.78253973	     -5.02437043	     -3.49974952	      0.15644508	      1.16104248	     -0.26584595	      0.00000000	      0.50000000	      0.00000000	      0.25000000	     94.85824108	     -0.72423446	     -3.20179557	    100.23536085	      1.74943707	     -2.90428958	     -8.91184654	      0.00000000	      0.00000000	     43.97000643	    -12.17983414	     -5.92344997	     49.51344915	      0.86417271	      6.64755513	     -1.26975133	      0.00000000	      0.00000000	    -63.80664188	      6.93552328	     10.20586301	     89.82789242	     -8.53721692	     26.57984959	     64.38048541	     26.51948252	      0.00000000	      0.00000000	     89.38607974	    -21.41582468	     32.01483289	     58.83231075	     32.19239991	      0.00000000	      0.00000000
